<svg width="200" height="200" viewBox="0 0 200 200" fill="none" xmlns="http://www.w3.org/2000/svg">
<rect width="200" height="200" rx="100" fill="#12B780"/>
<path fill-rule="evenodd" clip-rule="evenodd" d="M49.6692 129.754C51.1262 126.762 53.1186 123.595 55.8677 121.278C59.0035 118.63 63.0034 117.235 67.1018 117.361C71.2004 117.489 75.1118 119.13 78.0799 121.972C78.1032 121.995 78.1272 122.018 78.1501 122.04C84.3847 128.217 84.2925 138.102 78.9599 144.444C76.6507 147.202 73.4945 149.201 70.5119 150.663C64.0845 153.812 48.7373 153.217 47.7223 152.117C46.7074 151.017 46.3046 136.665 49.6692 129.754Z" fill="#090A0B"/>
<path fill-rule="evenodd" clip-rule="evenodd" d="M147.319 47.0014C150.462 47.0209 153 49.5823 153 52.7347C153 66.9344 149.04 91.6511 123.743 110.45C124.147 112.202 124.589 114.419 124.901 116.849C125.272 119.734 125.483 123.074 125.177 126.375C124.876 129.627 124.035 133.266 121.958 136.392L121.953 136.399C118.413 141.709 111.795 144.731 107.299 146.367C104.861 147.255 102.61 147.883 100.974 148.29C100.151 148.495 99.472 148.647 98.9892 148.749C98.7479 148.8 98.5541 148.838 98.4154 148.866C98.3461 148.879 98.2897 148.891 98.2483 148.898C98.2277 148.902 98.2103 148.905 98.1969 148.908L98.1794 148.911L98.17 148.914C96.503 149.217 94.7844 148.762 93.4838 147.673C92.1835 146.584 91.4317 144.971 91.4317 143.271V120.497L79.7382 108.766H57.0363C55.342 108.766 53.735 108.012 52.6492 106.707C51.5635 105.402 51.1102 103.681 51.4128 102.008L51.4187 101.979C51.4211 101.966 51.4242 101.948 51.428 101.928C51.4358 101.886 51.4472 101.83 51.4607 101.761C51.4878 101.622 51.5268 101.427 51.5776 101.185C51.6794 100.701 51.8306 100.02 52.0345 99.1956C52.4406 97.5534 53.0665 95.2938 53.9511 92.8472C55.582 88.3371 58.5951 81.6993 63.8869 78.1479L63.895 78.1432C67.0111 76.0593 70.6373 75.2152 73.8787 74.9129C77.1696 74.6061 80.4998 74.8183 83.375 75.19C85.821 75.5062 88.0503 75.953 89.8049 76.3615C95.9009 67.8524 103.824 60.797 113.009 55.7288L113.998 55.1934C124.255 49.7464 135.703 46.9292 147.319 47.0014ZM141.294 58.7346C134.519 132.225 70.5284 65.5075 141.294 58.7346Z" fill="#090A0B"/>
</svg>
