<svg width="29" height="29" viewBox="0 0 29 29" fill="none" xmlns="http://www.w3.org/2000/svg">
<path d="M3.96572 23.484L3.9657 21.7092C9.74421 23.484 7.03584 17.6056 8.72809 11.3731L6.64857 11.5593V10.6475C7.61896 10.5561 8.45552 10.1983 8.91869 9.32905C10.3386 6.49122 12.6106 5.54461 13.5692 5.42603C13.6993 5.61188 13.7417 5.73124 14.1432 6.35566C11.7791 6.84633 11.6548 8.67852 11.7292 9.32905H13.9595V10.2212C13.2718 10.2583 11.6846 10.578 10.8371 11.5593C9.77769 12.786 10.0007 17.4695 9.38738 21.038C8.89672 23.8928 5.76854 23.6512 3.96572 23.484Z" fill="black" stroke="black" stroke-width="1.07053"/>
<path d="M23.0859 18.7825L22.3823 17.5769C21.8097 18.1026 21.0094 18.7713 19.9155 18.5271C18.3344 18.1741 19.7088 14.0333 20.4157 12.4893C20.9812 11.2542 22.9416 11.1308 24.1361 11.1308V9.62464L21.6434 9.82926L21.9536 7.5647H20.7111C20.3395 10.008 17.8234 10.8743 16.6118 11.0021C16.6273 11.1144 16.6699 11.4713 16.7163 12.0009C17.4502 11.8058 18.5008 11.8344 18.9343 11.8732C18.8337 12.1054 18.4981 12.883 17.9611 14.1355C17.1114 16.4722 17.4035 20.1366 19.6074 20.349C21.3706 20.5189 22.661 19.3754 23.0859 18.7825Z" fill="black" stroke="black" stroke-width="1.07053"/>
</svg>
