<svg width="24" height="24" viewBox="0 0 24 24" fill="none" xmlns="http://www.w3.org/2000/svg">
<g clip-path="url(#clip0_6184_388)">
<path d="M18.9474 0H5.05263C2.26214 0 0 2.26214 0 5.05263V18.9474C0 21.7379 2.26214 24 5.05263 24H18.9474C21.7379 24 24 21.7379 24 18.9474V5.05263C24 2.26214 21.7379 0 18.9474 0Z" fill="#011629"/>
<path d="M6.04944 17.9504L6.13212 18.5708C5.93893 18.5965 5.74458 18.5308 5.60673 18.3931C5.46884 18.2551 5.4025 18.0604 5.42834 17.867L6.04944 17.9504Z" fill="white"/>
<path fill-rule="evenodd" clip-rule="evenodd" d="M8.24345 13.8716C8.67251 13.8849 9.08452 14.0367 9.41858 14.3013L9.55725 14.4217L9.56441 14.4295C10.309 15.1647 10.2996 16.3448 9.65946 17.1021L9.65881 17.1014C9.38162 17.4307 9.00029 17.6729 8.63342 17.8521C8.25885 18.035 7.85456 18.1746 7.49149 18.2785C7.1266 18.3828 6.78975 18.4553 6.54488 18.5018C6.42225 18.5251 6.32099 18.542 6.24996 18.5532C6.2145 18.5588 6.18577 18.5634 6.16597 18.5662C6.15622 18.5677 6.14811 18.5687 6.14254 18.5695C6.14 18.5698 6.13763 18.5699 6.13603 18.5702C6.13521 18.5703 6.13393 18.5707 6.13342 18.5708L6.04944 17.9504C5.47944 17.8742 5.43211 17.8676 5.42834 17.867L5.42899 17.8638C5.42923 17.8621 5.4299 17.8594 5.4303 17.8566C5.43108 17.851 5.43214 17.8429 5.43355 17.8332C5.43643 17.8134 5.44032 17.7852 5.44592 17.7498C5.45719 17.6787 5.47467 17.5778 5.498 17.4549C5.5445 17.21 5.61692 16.8733 5.72131 16.5083C5.82518 16.1452 5.96412 15.7403 6.14709 15.3657C6.32653 14.9984 6.5691 14.6163 6.89905 14.339C7.27424 14.0231 7.75322 13.8565 8.24345 13.8716ZM8.20504 15.1242C8.02304 15.1186 7.84483 15.1801 7.70569 15.2974L7.70504 15.298C7.56547 15.4153 7.41614 15.6223 7.27274 15.9159C7.13286 16.2023 7.01755 16.5317 6.92574 16.8527C6.89626 16.9558 6.86967 17.0568 6.84566 17.1535C6.94247 17.1295 7.04392 17.1036 7.14709 17.0741C7.46807 16.9822 7.79751 16.8669 8.08394 16.7271C8.37737 16.5837 8.5838 16.4343 8.70113 16.2948L8.70243 16.2935C8.95041 16.0001 8.92957 15.5673 8.68811 15.3247C8.55693 15.2013 8.38519 15.1298 8.20504 15.1242Z" fill="white"/>
<path fill-rule="evenodd" clip-rule="evenodd" d="M18.2662 5.11052C18.6106 5.11265 18.8885 5.3925 18.8886 5.73682C18.8886 7.49719 18.3947 10.5647 15.222 12.8879C15.2753 13.1118 15.3376 13.4062 15.3795 13.7316C15.4253 14.0869 15.4508 14.4959 15.4134 14.8983C15.3765 15.2954 15.2744 15.7327 15.026 16.1053L15.0253 16.106C14.6001 16.7415 13.7978 17.1098 13.2376 17.313C12.9367 17.4221 12.6586 17.4998 12.4563 17.55C12.3549 17.5751 12.2709 17.5941 12.2115 17.6066C12.1821 17.6128 12.1581 17.6176 12.1412 17.6209C12.133 17.6225 12.126 17.6239 12.1211 17.6248C12.1187 17.6253 12.1161 17.6259 12.1145 17.6261H12.1119L12.1113 17.6268C11.9288 17.6598 11.7407 17.6101 11.5983 17.4914C11.4558 17.3724 11.373 17.1959 11.373 17.0103V14.1385L9.86063 12.6261H6.98889C6.80331 12.6261 6.62671 12.5434 6.50777 12.4009C6.38905 12.2584 6.33924 12.0703 6.37235 11.8879L6.98889 11.9998C6.42364 11.8972 6.37616 11.8887 6.37235 11.8879L6.373 11.8846C6.37328 11.8831 6.37387 11.8811 6.37431 11.8787C6.37524 11.8738 6.37656 11.8664 6.37821 11.8579C6.38152 11.841 6.3863 11.8172 6.39254 11.7876C6.40506 11.7282 6.42399 11.6443 6.44918 11.5428C6.49937 11.3405 6.57702 11.0625 6.68616 10.7616C6.88935 10.2014 7.25767 9.39909 7.89319 8.9738L7.89384 8.97315C8.26639 8.72478 8.70383 8.62271 9.10087 8.58578C9.50318 8.54838 9.91231 8.57388 10.2675 8.61963C10.5969 8.66207 10.8949 8.72465 11.1197 8.77848C11.8781 7.70804 12.8701 6.82099 14.0234 6.18669C15.3227 5.47207 16.7834 5.10141 18.2662 5.11052ZM14.0911 13.5968C13.616 13.8591 13.127 14.0952 12.6256 14.3032V16.1991C12.6857 16.1794 12.7478 16.1586 12.8105 16.1359C13.3509 15.9399 13.802 15.6818 13.9843 15.4093C14.0738 15.2747 14.1402 15.0668 14.1666 14.7824C14.1926 14.5027 14.1761 14.1924 14.1373 13.8918C14.1242 13.7897 14.1078 13.6909 14.0911 13.5968ZM17.61 6.38786C16.566 6.47272 15.5489 6.7772 14.6269 7.28434C13.5147 7.89607 12.5773 8.78238 11.9043 9.85856L11.9003 9.86377C11.4961 10.4952 11.1475 11.1603 10.8567 11.8508L12.1497 13.1437C12.8494 12.8531 13.5236 12.5042 14.1647 12.0994C16.8089 10.3222 17.482 7.99956 17.61 6.38786ZM9.21675 9.83252C8.93191 9.85903 8.72377 9.9258 8.58915 10.0155C8.31693 10.1981 8.0591 10.6487 7.86324 11.1886C7.84045 11.2515 7.81908 11.3134 7.79944 11.3735H9.69853C9.90933 10.8723 10.148 10.3834 10.414 9.90934C10.3168 9.89194 10.214 9.87548 10.108 9.86182C9.80741 9.82309 9.49644 9.80653 9.21675 9.83252Z" fill="white"/>
</g>
<defs>
<clipPath id="clip0_6184_388">
<rect width="24" height="24" fill="white"/>
</clipPath>
</defs>
</svg>
