<svg width="24" height="24" viewBox="0 0 24 24" fill="none" xmlns="http://www.w3.org/2000/svg">
<path fill-rule="evenodd" clip-rule="evenodd" d="M12.6561 0.32L15.4027 5.81333C15.4827 5.94667 15.6161 6.10667 15.8294 6.10667L21.9094 6.98667C22.3361 7.06667 22.4961 7.57333 22.2027 7.92L17.7761 12.1867C17.6427 12.32 17.5627 12.48 17.6427 12.6933L18.6561 18.7733C18.7361 19.2 18.2827 19.5733 17.8561 19.36L12.4161 16.4533C12.2827 16.3733 12.0427 16.3733 11.9094 16.4533L6.49607 19.36C6.12274 19.5733 5.61607 19.2267 5.69607 18.7733L6.70941 12.6933C6.70941 12.56 6.70941 12.32 6.57607 12.1867L2.14941 7.92C1.85607 7.62667 2.01607 7.04 2.44274 6.98667L8.52274 6.10667C8.65607 6.10667 8.81607 5.97333 8.9494 5.81333L11.6961 0.32C11.9361 -0.106667 12.4161 -0.106667 12.6561 0.32Z" fill="#FFC54D"/>
<path fill-rule="evenodd" clip-rule="evenodd" d="M20.4694 18.2666H3.88273C3.53606 18.2666 3.26939 18.5066 3.18939 18.8266L2.22939 22.9599C2.12272 23.4133 2.46939 23.8399 2.92273 23.8399H21.4561C21.9094 23.8399 22.2561 23.4133 22.1494 22.9599L21.1894 18.8266C21.1094 18.4799 20.8161 18.2666 20.4694 18.2666Z" fill="#7C6850"/>
<path fill-rule="evenodd" clip-rule="evenodd" d="M15.8028 22.1333H8.54949C8.38949 22.1333 8.22949 21.9999 8.22949 21.8133V20.2399C8.22949 20.0799 8.36283 19.9199 8.54949 19.9199H15.7761C15.9361 19.9199 16.0961 20.0533 16.0961 20.2399V21.8133C16.0961 21.9999 15.9628 22.1333 15.8028 22.1333Z" fill="white"/>
</svg>
