<svg width="258" height="258" viewBox="0 0 258 258" fill="none" xmlns="http://www.w3.org/2000/svg">
<g clip-path="url(#clip0_6184_399)">
<circle cx="129" cy="129" r="129" fill="black"/>
<path d="M148.314 203.447C138.179 203.447 129.192 201.622 121.354 197.973C113.65 194.325 107.569 188.581 103.109 180.743C98.7849 172.77 96.6227 162.296 96.6227 149.322V127.43C96.6227 119.862 96.6227 112.226 96.6227 104.523C96.6227 96.82 96.5551 89.0494 96.42 81.2112C96.42 75.9407 93.9199 72.6297 88.9196 71.2783L84.46 70.2648V66.0078H139.192V70.2648L133.516 71.481C128.381 72.6973 125.813 76.0758 125.813 81.6166C125.678 89.1846 125.611 96.82 125.611 104.523C125.611 112.091 125.611 119.727 125.611 127.43V153.174C125.611 166.283 128.246 175.743 133.516 181.554C138.922 187.365 146.557 190.27 156.423 190.27C166.829 190.27 174.937 187.162 180.748 180.946C186.694 174.594 189.668 165.202 189.668 152.769V82.2248C189.668 79.522 189.127 77.157 188.046 75.1298C186.965 73.1027 185.073 71.8189 182.37 71.2783L177.505 70.2648V66.0078H208.722V70.2648L203.047 71.481C200.479 72.0216 198.722 73.2379 197.776 75.1298C196.83 77.0218 196.357 79.3192 196.357 82.0221V151.552C196.357 168.31 191.965 181.148 183.181 190.068C174.397 198.987 162.774 203.447 148.314 203.447Z" fill="white"/>
</g>
<defs>
<clipPath id="clip0_6184_399">
<rect width="258" height="258" fill="white"/>
</clipPath>
</defs>
</svg>
