<svg width="267" height="84" viewBox="0 0 267 84" fill="none" xmlns="http://www.w3.org/2000/svg">
<g clip-path="url(#clip0_15101_8969)">
<path d="M119.037 45.5732H113.966L121.541 23.6008H128.348L135.816 45.5732H130.637L124.438 25.1757H125.344L119.037 45.5732ZM118.422 40.7408V36.7765H131.913V40.7408H118.422Z" fill="black"/>
<path d="M143.303 23.6008V45.5732H138.447V23.6008H143.303Z" fill="black"/>
<path d="M153.436 23.6008H158.291V41.824L157.923 41.4399H168.279V45.5732H153.436V23.6008Z" fill="black"/>
<path d="M171.65 34.8405C171.65 33.8161 171.837 32.8917 172.211 32.0671C172.59 31.2425 173.13 30.5433 173.832 29.9697C174.539 29.3909 175.394 28.9479 176.398 28.6406C177.407 28.3282 178.539 28.172 179.794 28.172C181.089 28.172 182.244 28.3384 183.258 28.6713C184.278 29.0042 185.138 29.4857 185.84 30.1157C186.547 30.7405 187.087 31.5088 187.461 32.4205C187.835 33.3321 188.022 34.3667 188.022 35.5243V45.5732H183.42V41.1479H183.443C183.32 41.6499 183.151 42.1211 182.936 42.5616C182.721 42.9969 182.465 43.3964 182.167 43.7601C181.87 44.1186 181.532 44.4387 181.153 44.7204C180.779 45.0021 180.372 45.2428 179.932 45.4425C179.491 45.6372 179.018 45.7831 178.511 45.8805C178.003 45.9829 177.473 46.0341 176.92 46.0341C176.055 46.0341 175.266 45.9138 174.554 45.673C173.847 45.4374 173.24 45.102 172.733 44.6666C172.231 44.2261 171.842 43.6986 171.565 43.084C171.289 42.4642 171.151 41.7805 171.151 41.0327C171.151 40.2286 171.309 39.5115 171.627 38.8816C171.95 38.2465 172.411 37.7087 173.01 37.2682C173.614 36.8277 174.352 36.4923 175.222 36.2618C176.093 36.0313 177.082 35.9161 178.188 35.9161H183.535V38.7125H178.664C178.188 38.7125 177.768 38.7535 177.404 38.8355C177.046 38.9123 176.744 39.0327 176.498 39.1966C176.252 39.3553 176.065 39.5525 175.937 39.7881C175.814 40.0237 175.752 40.2977 175.752 40.6102C175.752 40.9277 175.819 41.212 175.952 41.4629C176.085 41.7088 176.277 41.9162 176.528 42.0852C176.779 42.2542 177.089 42.3849 177.458 42.477C177.832 42.5641 178.257 42.6077 178.733 42.6077C179.184 42.6077 179.612 42.5692 180.016 42.4924C180.421 42.4156 180.797 42.3055 181.146 42.1621C181.494 42.0187 181.806 41.8471 182.083 41.6473C182.365 41.4425 182.605 41.2145 182.805 40.9636C183.005 40.7075 183.156 40.4335 183.258 40.1415C183.366 39.8496 183.42 39.5397 183.42 39.2119V35.5243C183.42 34.9404 183.335 34.418 183.166 33.957C182.997 33.496 182.754 33.1068 182.436 32.7892C182.119 32.4666 181.727 32.2207 181.261 32.0517C180.8 31.8827 180.275 31.7982 179.686 31.7982C179.092 31.7982 178.577 31.8699 178.142 32.0133C177.712 32.1516 177.356 32.3513 177.074 32.6125C176.792 32.8737 176.582 33.1938 176.444 33.5729C176.306 33.9467 176.236 34.3693 176.236 34.8405H171.65Z" fill="black"/>
<path d="M202.955 37.5217V28.6329H207.557V45.5732H202.955V40.395L202.978 40.372C202.804 41.2888 202.543 42.1006 202.195 42.8074C201.852 43.5091 201.426 44.0981 200.919 44.5744C200.412 45.0507 199.831 45.4118 199.175 45.6577C198.52 45.9086 197.795 46.0341 197.001 46.0341C196.09 46.0341 195.283 45.8702 194.581 45.5424C193.88 45.2146 193.293 44.7306 192.822 44.0904C192.351 43.4502 191.992 42.6614 191.746 41.7241C191.5 40.7817 191.378 39.6985 191.378 38.4744V28.6329H195.979V37.7061C195.979 38.4283 196.046 39.0608 196.179 39.6037C196.317 40.1415 196.522 40.5897 196.794 40.9482C197.07 41.3067 197.414 41.5756 197.823 41.7549C198.238 41.9341 198.722 42.0238 199.275 42.0238C199.665 42.0238 200.026 41.9802 200.359 41.8932C200.691 41.8061 200.994 41.6781 201.265 41.509C201.542 41.3349 201.785 41.1223 201.995 40.8714C202.205 40.6153 202.379 40.3208 202.517 39.9879C202.661 39.6498 202.768 39.2759 202.84 38.8662C202.917 38.4565 202.955 38.0083 202.955 37.5217Z" fill="black"/>
<path d="M215.659 36.6843V45.5732H211.057V28.6329H215.659V33.811L215.636 33.8341C215.81 32.9173 216.069 32.108 216.412 31.4064C216.76 30.6995 217.188 30.108 217.695 29.6317C218.202 29.1553 218.783 28.7943 219.439 28.5484C220.094 28.2974 220.819 28.172 221.613 28.172C222.525 28.172 223.331 28.3359 224.033 28.6636C224.735 28.9914 225.321 29.4754 225.792 30.1157C226.264 30.7559 226.622 31.5472 226.868 32.4896C227.114 33.4269 227.237 34.5076 227.237 35.7317V45.5732H222.635V36.4999C222.635 35.7778 222.566 35.1478 222.427 34.61C222.294 34.0671 222.089 33.6164 221.813 33.2579C221.541 32.8993 221.198 32.6305 220.783 32.4512C220.374 32.2719 219.892 32.1823 219.339 32.1823C218.95 32.1823 218.589 32.2258 218.256 32.3129C217.923 32.4 217.618 32.5306 217.342 32.7047C217.07 32.8737 216.829 33.0863 216.619 33.3424C216.409 33.5933 216.233 33.8878 216.089 34.2259C215.951 34.5588 215.843 34.9301 215.767 35.3399C215.695 35.7496 215.659 36.1978 215.659 36.6843Z" fill="black"/>
<path d="M234.939 37.0992C234.939 37.8828 235.029 38.5819 235.208 39.1966C235.387 39.806 235.646 40.3208 235.984 40.7408C236.322 41.1608 236.737 41.4809 237.229 41.7011C237.72 41.9162 238.278 42.0238 238.903 42.0238C239.426 42.0238 239.887 41.9469 240.286 41.7933C240.691 41.6396 241.037 41.4245 241.323 41.1479C241.615 40.8663 241.853 40.5333 242.038 40.1492C242.222 39.7651 242.358 39.3425 242.445 38.8816H247.032C246.893 39.9315 246.604 40.8944 246.163 41.7702C245.728 42.6461 245.16 43.399 244.458 44.0289C243.761 44.6589 242.944 45.1506 242.007 45.504C241.07 45.8574 240.033 46.0341 238.896 46.0341C238.051 46.0341 237.252 45.9394 236.499 45.7499C235.746 45.5603 235.052 45.2838 234.417 44.9201C233.782 44.5565 233.21 44.116 232.703 43.5987C232.196 43.0763 231.764 42.4847 231.405 41.824C231.052 41.1582 230.78 40.4309 230.591 39.6421C230.401 38.8483 230.306 38.0006 230.306 37.0992C230.306 36.1978 230.401 35.3527 230.591 34.5639C230.78 33.77 231.052 33.0428 231.405 32.382C231.764 31.7213 232.196 31.1298 232.703 30.6074C233.21 30.0849 233.782 29.6445 234.417 29.2859C235.052 28.9223 235.746 28.6457 236.499 28.4562C237.252 28.2667 238.051 28.172 238.896 28.172C240.033 28.172 241.07 28.3487 242.007 28.7021C242.944 29.0555 243.761 29.5472 244.458 30.1771C245.16 30.8071 245.728 31.56 246.163 32.4358C246.604 33.3116 246.893 34.2745 247.032 35.3245H242.445C242.358 34.8635 242.222 34.441 242.038 34.0569C241.853 33.6676 241.615 33.3347 241.323 33.0581C241.037 32.7815 240.691 32.5664 240.286 32.4128C239.887 32.2591 239.426 32.1823 238.903 32.1823C238.278 32.1823 237.72 32.2924 237.229 32.5127C236.737 32.7278 236.322 33.0453 235.984 33.4653C235.646 33.8802 235.387 34.3949 235.208 35.0095C235.029 35.619 234.939 36.3156 234.939 37.0992Z" fill="black"/>
<path d="M254.774 36.6843V45.5732H250.173V22.8325H254.774V33.811L254.751 33.8341C254.926 32.9173 255.184 32.108 255.527 31.4064C255.876 30.6995 256.303 30.108 256.81 29.6317C257.317 29.1553 257.899 28.7943 258.554 28.5484C259.21 28.2974 259.935 28.172 260.729 28.172C261.64 28.172 262.447 28.3359 263.149 28.6636C263.85 28.9914 264.437 29.4754 264.908 30.1157C265.379 30.7559 265.738 31.5472 265.983 32.4896C266.229 33.4269 266.352 34.5076 266.352 35.7317V45.5732H261.75V36.4999C261.75 35.7778 261.681 35.1478 261.543 34.61C261.41 34.0671 261.205 33.6164 260.928 33.2579C260.657 32.8993 260.314 32.6305 259.899 32.4512C259.489 32.2719 259.008 32.1823 258.454 32.1823C258.065 32.1823 257.704 32.2258 257.371 32.3129C257.038 32.4 256.734 32.5306 256.457 32.7047C256.186 32.8737 255.945 33.0863 255.735 33.3424C255.525 33.5933 255.348 33.8878 255.205 34.2259C255.066 34.5588 254.959 34.9301 254.882 35.3399C254.81 35.7496 254.774 36.1978 254.774 36.6843Z" fill="black"/>
<path d="M124.115 54.1792C125.523 54.1792 126.791 54.3482 127.918 54.6863C129.05 55.0243 130.01 55.5134 130.799 56.1537C131.593 56.7888 132.202 57.5647 132.627 58.4815C133.052 59.3932 133.265 60.4227 133.265 61.5699H128.609C128.609 61.0424 128.499 60.5661 128.279 60.141C128.064 59.7159 127.756 59.3548 127.357 59.0577C126.957 58.7606 126.476 58.5327 125.913 58.374C125.354 58.2101 124.735 58.1281 124.053 58.1281C123.669 58.1281 123.293 58.1537 122.924 58.2049C122.56 58.2562 122.215 58.333 121.887 58.4354C121.559 58.5378 121.254 58.6659 120.973 58.8195C120.696 58.9732 120.458 59.1525 120.258 59.3573C120.058 59.5622 119.9 59.7952 119.782 60.0565C119.669 60.3125 119.613 60.5942 119.613 60.9015C119.613 61.1935 119.662 61.447 119.759 61.6621C119.856 61.8772 119.997 62.0642 120.181 62.223C120.371 62.3817 120.604 62.52 120.881 62.6378C121.157 62.7505 121.48 62.8504 121.849 62.9374C122.217 63.0245 122.627 63.1065 123.078 63.1833C123.528 63.2601 124.023 63.3369 124.56 63.4138L125.452 63.5444C126.066 63.6314 126.704 63.7339 127.365 63.8517C128.025 63.9644 128.671 64.118 129.301 64.3126C129.936 64.5021 130.538 64.7454 131.106 65.0425C131.675 65.3344 132.174 65.7058 132.604 66.1565C133.034 66.6021 133.375 67.1424 133.626 67.7775C133.877 68.4126 134.002 69.1629 134.002 70.0285C134.002 71.186 133.772 72.2027 133.311 73.0785C132.855 73.9544 132.205 74.6893 131.36 75.2835C130.52 75.8725 129.503 76.3181 128.31 76.6202C127.116 76.9224 125.785 77.0735 124.315 77.0735C122.732 77.0735 121.326 76.9019 120.097 76.5588C118.873 76.2156 117.841 75.7188 117.001 75.0683C116.166 74.4179 115.531 73.624 115.095 72.6867C114.665 71.7443 114.45 70.6764 114.45 69.4831H119.106C119.106 70.0516 119.226 70.5612 119.467 71.0119C119.708 71.4626 120.051 71.8442 120.496 72.1566C120.942 72.4691 121.482 72.7098 122.117 72.8788C122.758 73.0427 123.477 73.1246 124.276 73.1246C124.963 73.1246 125.603 73.0632 126.197 72.9403C126.796 72.8122 127.316 72.6253 127.756 72.3794C128.202 72.1285 128.553 71.816 128.809 71.4421C129.065 71.0682 129.193 70.6303 129.193 70.1284C129.193 69.8109 129.144 69.5368 129.047 69.3064C128.95 69.0708 128.806 68.8684 128.617 68.6994C128.433 68.5253 128.202 68.3793 127.925 68.2615C127.654 68.1437 127.339 68.0438 126.981 67.9619C126.627 67.8748 126.235 67.798 125.805 67.7314C125.375 67.6597 124.909 67.588 124.407 67.5163L123.247 67.3473C122.642 67.2653 122.012 67.1706 121.357 67.063C120.706 66.9555 120.069 66.8146 119.444 66.6405C118.819 66.4612 118.225 66.2333 117.661 65.9567C117.103 65.675 116.612 65.3191 116.186 64.8888C115.766 64.4586 115.431 63.9413 115.18 63.3369C114.929 62.7326 114.804 62.013 114.804 61.1781C114.804 60.4201 114.911 59.721 115.126 59.0808C115.341 58.4354 115.646 57.8541 116.04 57.3368C116.44 56.8144 116.919 56.3585 117.477 55.9693C118.04 55.5749 118.665 55.2471 119.352 54.9859C120.043 54.7196 120.788 54.5198 121.587 54.3867C122.391 54.2484 123.234 54.1792 124.115 54.1792Z" fill="black"/>
<path d="M141.622 59.6723V64.8965L141.599 64.9119C141.783 64.0105 142.047 63.2063 142.39 62.4995C142.733 61.7927 143.146 61.196 143.627 60.7095C144.114 60.2229 144.667 59.8516 145.287 59.5955C145.911 59.3394 146.59 59.2114 147.322 59.2114C147.993 59.2114 148.629 59.3112 149.228 59.511C149.827 59.7056 150.38 59.9873 150.887 60.3561C151.394 60.7248 151.85 61.1756 152.255 61.7082C152.664 62.2358 153.01 62.8299 153.292 63.4906C153.574 64.1513 153.789 64.8735 153.937 65.6571C154.091 66.4356 154.168 67.2628 154.168 68.1386C154.168 69.0144 154.091 69.8441 153.937 70.6278C153.789 71.4063 153.574 72.1285 153.292 72.7943C153.01 73.455 152.664 74.0491 152.255 74.5767C151.85 75.1042 151.394 75.5549 150.887 75.9288C150.38 76.2976 149.827 76.5793 149.228 76.7739C148.629 76.9736 147.993 77.0735 147.322 77.0735C146.59 77.0735 145.911 76.9455 145.287 76.6894C144.667 76.4333 144.114 76.062 143.627 75.5754C143.146 75.0888 142.733 74.4921 142.39 73.7853C142.047 73.0734 141.783 72.2667 141.599 71.3653L141.622 71.3884V82.4206H137.02V59.6723H141.622ZM141.622 68.1386C141.622 68.6661 141.66 69.1553 141.737 69.606C141.819 70.0567 141.937 70.4664 142.091 70.8352C142.244 71.204 142.434 71.5318 142.659 71.8186C142.89 72.1003 143.153 72.3384 143.45 72.5331C143.748 72.7226 144.075 72.866 144.434 72.9633C144.797 73.0606 145.189 73.1093 145.609 73.1093C146.255 73.1093 146.821 73.0043 147.307 72.7943C147.799 72.5843 148.209 72.2693 148.536 71.8493C148.864 71.4293 149.113 70.9095 149.282 70.2897C149.451 69.67 149.535 68.953 149.535 68.1386C149.535 67.3242 149.451 66.6072 149.282 65.9875C149.118 65.3677 148.869 64.8504 148.536 64.4356C148.209 64.0156 147.799 63.7006 147.307 63.4906C146.821 63.2806 146.255 63.1756 145.609 63.1756C145.189 63.1756 144.797 63.2243 144.434 63.3216C144.075 63.4189 143.748 63.5649 143.45 63.7595C143.153 63.949 142.89 64.1846 142.659 64.4663C142.434 64.748 142.244 65.0732 142.091 65.442C141.937 65.8108 141.819 66.2205 141.737 66.6712C141.66 67.1219 141.622 67.6111 141.622 68.1386Z" fill="black"/>
<path d="M157.201 65.8799C157.201 64.8555 157.388 63.9311 157.762 63.1065C158.141 62.2819 158.682 61.5827 159.383 61.0091C160.09 60.4303 160.945 59.9873 161.949 59.68C162.958 59.3676 164.09 59.2114 165.345 59.2114C166.641 59.2114 167.796 59.3778 168.81 59.7107C169.829 60.0436 170.69 60.5251 171.391 61.1551C172.098 61.7799 172.638 62.5482 173.012 63.4599C173.386 64.3715 173.573 65.4061 173.573 66.5637V76.6126H168.971V72.1874H168.994C168.871 72.6893 168.702 73.1605 168.487 73.601C168.272 74.0363 168.016 74.4358 167.719 74.7995C167.422 75.158 167.084 75.4781 166.705 75.7598C166.331 76.0415 165.924 76.2822 165.483 76.482C165.043 76.6766 164.569 76.8226 164.062 76.9199C163.555 77.0223 163.025 77.0735 162.472 77.0735C161.606 77.0735 160.817 76.9532 160.105 76.7124C159.399 76.4768 158.792 76.1414 158.285 75.706C157.783 75.2655 157.393 74.738 157.117 74.1234C156.84 73.5036 156.702 72.8199 156.702 72.0721C156.702 71.268 156.861 70.5509 157.178 69.921C157.501 69.2859 157.962 68.7481 158.561 68.3076C159.166 67.8671 159.903 67.5317 160.774 67.3012C161.645 67.0707 162.633 66.9555 163.739 66.9555H169.086V69.752H164.216C163.739 69.752 163.319 69.7929 162.956 69.8749C162.597 69.9517 162.295 70.0721 162.049 70.236C161.803 70.3947 161.616 70.5919 161.488 70.8275C161.365 71.0631 161.304 71.3371 161.304 71.6496C161.304 71.9671 161.371 72.2514 161.504 72.5023C161.637 72.7482 161.829 72.9556 162.08 73.1246C162.331 73.2937 162.641 73.4243 163.009 73.5165C163.383 73.6035 163.808 73.6471 164.285 73.6471C164.736 73.6471 165.163 73.6086 165.568 73.5318C165.972 73.455 166.349 73.3449 166.697 73.2015C167.045 73.0581 167.358 72.8865 167.634 72.6867C167.916 72.4819 168.157 72.2539 168.357 72.003C168.556 71.7469 168.707 71.4729 168.81 71.1809C168.917 70.889 168.971 70.5791 168.971 70.2513V66.5637C168.971 65.9798 168.887 65.4574 168.718 64.9964C168.549 64.5354 168.305 64.1462 167.988 63.8286C167.67 63.506 167.278 63.2601 166.812 63.0911C166.351 62.9221 165.826 62.8376 165.237 62.8376C164.643 62.8376 164.129 62.9093 163.693 63.0527C163.263 63.191 162.907 63.3907 162.625 63.6519C162.344 63.9131 162.134 64.2333 161.995 64.6123C161.857 64.9862 161.788 65.4087 161.788 65.8799H157.201Z" fill="black"/>
<path d="M181.285 68.1386C181.285 68.9222 181.375 69.6214 181.554 70.236C181.733 70.8455 181.992 71.3602 182.33 71.7802C182.668 72.2002 183.083 72.5203 183.575 72.7405C184.066 72.9556 184.624 73.0632 185.249 73.0632C185.772 73.0632 186.233 72.9864 186.632 72.8327C187.037 72.679 187.383 72.4639 187.669 72.1874C187.961 71.9057 188.199 71.5727 188.384 71.1886C188.568 70.8045 188.704 70.3819 188.791 69.921H193.378C193.239 70.9709 192.95 71.9338 192.509 72.8096C192.074 73.6855 191.506 74.4384 190.804 75.0683C190.107 75.6983 189.29 76.19 188.353 76.5434C187.416 76.8968 186.379 77.0735 185.242 77.0735C184.397 77.0735 183.598 76.9788 182.845 76.7893C182.092 76.5998 181.398 76.3232 180.763 75.9595C180.128 75.5959 179.556 75.1554 179.049 74.6381C178.542 74.1157 178.11 73.5241 177.751 72.8634C177.398 72.1976 177.126 71.4703 176.937 70.6816C176.747 69.8877 176.652 69.04 176.652 68.1386C176.652 67.2372 176.747 66.3921 176.937 65.6033C177.126 64.8095 177.398 64.0822 177.751 63.4215C178.11 62.7607 178.542 62.1692 179.049 61.6468C179.556 61.1243 180.128 60.6839 180.763 60.3253C181.398 59.9617 182.092 59.6851 182.845 59.4956C183.598 59.3061 184.397 59.2114 185.242 59.2114C186.379 59.2114 187.416 59.3881 188.353 59.7415C189.29 60.0949 190.107 60.5866 190.804 61.2165C191.506 61.8465 192.074 62.5994 192.509 63.4752C192.95 64.3511 193.239 65.3139 193.378 66.3639H188.791C188.704 65.9029 188.568 65.4804 188.384 65.0963C188.199 64.707 187.961 64.3741 187.669 64.0975C187.383 63.8209 187.037 63.6058 186.632 63.4522C186.233 63.2985 185.772 63.2217 185.249 63.2217C184.624 63.2217 184.066 63.3318 183.575 63.5521C183.083 63.7672 182.668 64.0847 182.33 64.5047C181.992 64.9196 181.733 65.4343 181.554 66.0489C181.375 66.6584 181.285 67.355 181.285 68.1386Z" fill="black"/>
<path d="M200.56 68.4459C200.56 69.2142 200.657 69.9056 200.852 70.5202C201.051 71.1297 201.336 71.647 201.704 72.0721C202.073 72.4972 202.521 72.825 203.049 73.0555C203.581 73.2808 204.183 73.3935 204.854 73.3935C205.3 73.3935 205.71 73.3423 206.083 73.2399C206.462 73.1323 206.803 72.9735 207.105 72.7636C207.413 72.5484 207.684 72.2847 207.92 71.9722C208.16 71.6547 208.363 71.2885 208.527 70.8736H212.852C212.621 71.8365 212.26 72.7021 211.769 73.4704C211.277 74.2386 210.68 74.8891 209.979 75.4217C209.282 75.9544 208.488 76.3616 207.597 76.6433C206.711 76.9301 205.753 77.0735 204.724 77.0735C203.443 77.0735 202.278 76.8584 201.228 76.4282C200.178 75.9979 199.277 75.391 198.524 74.6074C197.776 73.8186 197.195 72.8762 196.78 71.7802C196.37 70.679 196.165 69.46 196.165 68.1232C196.165 66.7967 196.367 65.5854 196.772 64.4893C197.182 63.3933 197.758 62.456 198.501 61.6775C199.243 60.8939 200.135 60.2869 201.174 59.8567C202.214 59.4265 203.366 59.2114 204.631 59.2114C205.881 59.2114 207.016 59.4239 208.035 59.849C209.059 60.269 209.932 60.8683 210.655 61.6468C211.382 62.4201 211.943 63.3549 212.337 64.4509C212.732 65.5419 212.929 66.7583 212.929 68.1002C212.929 68.3051 212.924 68.5125 212.913 68.7225C212.903 68.9274 212.888 69.1373 212.867 69.3525H199.015V66.5099H210.44L208.573 69.3064C208.593 69.1066 208.606 68.9094 208.611 68.7148C208.621 68.515 208.626 68.3204 208.626 68.1309C208.626 67.2602 208.539 66.4971 208.365 65.8415C208.196 65.1808 207.945 64.6276 207.612 64.182C207.279 63.7364 206.865 63.401 206.368 63.1756C205.876 62.9451 205.305 62.8299 204.654 62.8299C204.009 62.8299 203.433 62.9426 202.926 63.1679C202.419 63.3933 201.989 63.7211 201.635 64.1513C201.287 64.5764 201.021 65.0988 200.836 65.7186C200.652 66.3383 200.56 67.04 200.56 67.8236V68.4459Z" fill="black"/>
<path fill-rule="evenodd" clip-rule="evenodd" d="M13.2431 29.5437C16.9586 23.6115 29.4156 21.5322 43.9311 24.8701C42.7193 26.1533 41.794 27.7067 41.0946 29.1776C38.1508 28.5883 35.3292 28.2439 32.701 28.1289C28.2775 27.9353 24.5804 28.3943 21.8473 29.2731C19.045 30.1743 17.7552 31.341 17.2698 32.1735C17.2681 32.1764 17.2666 32.1794 17.2649 32.1823C14.0279 41.4257 36.849 68.3567 40.9922 56.15C41.3103 55.2129 41.3557 54.4909 41.6328 53.5192C41.9825 52.2932 42.4528 50.9214 43.074 49.6461C43.6818 48.3983 44.5131 47.0775 45.6599 46.1114C46.9682 45.0073 48.6369 44.4253 50.3467 44.4782C52.0566 44.5316 53.6884 45.2158 54.9267 46.401C54.9364 46.4103 54.9464 46.4199 54.9559 46.4293C57.557 49.005 57.5185 53.1272 55.2938 55.7721C54.3304 56.9222 53.0137 57.7559 51.7694 58.3654C50.4581 59.0076 49.2819 59.1377 47.793 59.8417C30.5137 68.0114 77.8768 82.5797 88.9563 74.1925C89.7262 73.6097 89.838 72.6222 89.7637 71.8942C89.7071 71.4922 89.6322 71.0545 89.5316 70.5798C88.9217 67.7028 87.5542 64.1176 85.3431 60.2195C83.8653 57.6143 82.041 54.9256 79.8807 52.2686C80.0135 51.647 80.102 51.031 80.1571 50.4379C80.3272 48.6074 80.212 46.7555 80.0079 45.1505C91.9619 57.6633 96.8103 72.1791 93.8737 77.7906L93.7776 77.9656C89.5706 85.2671 64.0203 87.0908 42.0107 74.2656L41.4875 73.958C19.1876 60.6926 7.88151 38.7327 13.1174 29.7524L13.2431 29.5437ZM50.199 49.2576C49.6632 49.2412 49.1398 49.4239 48.7295 49.7705L48.7271 49.7729C48.3054 50.1281 47.8291 50.7789 47.3585 51.745C46.9013 52.6837 46.5216 53.7688 46.2177 54.8341C46.1675 55.01 46.1202 55.1845 46.0748 55.3558C46.2458 55.3103 46.4199 55.2633 46.5955 55.2129C47.6579 54.9082 48.7402 54.5276 49.6763 54.0691C50.6398 53.5972 51.2889 53.1195 51.6431 52.6967L51.648 52.6908C52.3842 51.8172 52.3075 50.5428 51.6177 49.8451C51.2322 49.4835 50.7279 49.2741 50.199 49.2576Z" fill="black"/>
<path fill-rule="evenodd" clip-rule="evenodd" d="M83.8127 15.1368C85.1237 15.1449 86.1825 16.2131 86.1827 17.5277C86.1826 23.4492 84.5305 33.7565 73.977 41.5958C74.1455 42.3266 74.3299 43.251 74.4601 44.2646C74.6147 45.4674 74.7028 46.8605 74.5752 48.2371C74.4495 49.5932 74.0987 51.1107 73.232 52.4144L73.2301 52.4173C71.7533 54.6314 68.9923 55.8919 67.1168 56.5741C66.0995 56.9441 65.1605 57.2063 64.4777 57.3761C64.1346 57.4615 63.8512 57.5247 63.6498 57.5673C63.5492 57.5886 63.4683 57.6047 63.4104 57.616C63.3815 57.6217 63.358 57.6264 63.3407 57.6297C63.3321 57.6313 63.3249 57.6325 63.3193 57.6336L63.312 57.635L63.3081 57.636C62.6126 57.7625 61.8956 57.573 61.353 57.1187C60.8105 56.6645 60.4969 55.9918 60.4969 55.2831V45.7858L55.6185 40.8937H46.1475C45.4407 40.8937 44.7702 40.5793 44.3172 40.0352C43.8643 39.491 43.6752 38.7732 43.8014 38.0757L43.8039 38.0636C43.8049 38.058 43.8062 38.0506 43.8078 38.0421C43.811 38.0248 43.8158 38.0013 43.8214 37.9724C43.8327 37.9144 43.849 37.8334 43.8702 37.7325C43.9126 37.5306 43.9757 37.2467 44.0608 36.9027C44.2302 36.2179 44.4913 35.2756 44.8604 34.2553C45.5408 32.3745 46.7978 29.6065 49.0055 28.1255L49.0089 28.1235C50.3089 27.2545 51.8217 26.9025 53.174 26.7764C54.5469 26.6485 55.9362 26.737 57.1358 26.892C58.1562 27.0238 59.0862 27.2102 59.8182 27.3805C62.3614 23.8321 65.6667 20.8898 69.4989 18.7763L69.9114 18.553C74.1903 16.2815 78.9663 15.1067 83.8127 15.1368ZM69.6486 44.3085C68.2234 45.0819 66.7605 45.7845 65.2656 46.4132V52.158C65.34 52.1319 65.4154 52.1059 65.4908 52.0785C67.2912 51.4236 68.7138 50.5862 69.2659 49.7588C69.5276 49.3634 69.7411 48.7211 69.827 47.7949C69.9112 46.8869 69.8582 45.8701 69.7305 44.876C69.7057 44.6834 69.6776 44.4935 69.6486 44.3085ZM81.2989 20.0298C78.1033 20.3355 74.9912 21.2672 72.1424 22.7795L71.7972 22.9663C68.1263 24.9908 65.0327 27.9238 62.8113 31.4856C62.8068 31.4927 62.8021 31.5 62.7976 31.5071C61.492 33.5516 60.3594 35.7016 59.4102 37.9334L63.4548 41.9893C65.7078 41.0395 67.8797 39.9046 69.9474 38.5955C78.4977 32.8338 80.8083 25.3493 81.2989 20.0298ZM56.5263 31.6348C55.5348 31.5067 54.5208 31.4539 53.6152 31.5383C52.6916 31.6244 52.051 31.8375 51.6567 32.0999C50.8315 32.6536 49.9969 34.0809 49.3438 35.8862C49.3165 35.9617 49.2898 36.0373 49.2639 36.1119H55.0008C55.6359 34.6136 56.3458 33.1483 57.1275 31.7221C56.9317 31.6908 56.7308 31.6612 56.5263 31.6348Z" fill="black"/>
<path d="M84.9108 36.2744C96.2424 41.5656 103.493 48.6048 103.817 53.2102C104.396 61.4575 80.7162 77.769 52.0533 77.9287L51.3824 77.9297C23.2377 77.8525 -0.375061 63.0914 0.00451352 54.0035L0.0181648 53.7885C0.290026 50.576 3.224 46.587 8.16064 42.7583C8.57445 44.4404 9.16494 46.0352 9.75149 47.2515C8.96179 47.9177 8.25245 48.5763 7.62775 49.2207C5.24213 51.6816 4.55847 53.4214 4.49528 54.1673C4.46925 54.4767 4.69815 55.901 7.02905 58.3226C9.19544 60.5732 12.5931 63.0497 17.0569 65.3525C25.9643 69.9477 38.4543 73.5111 52.0284 73.4355C65.551 73.3601 77.9133 69.463 86.7542 64.6548C91.1819 62.2468 94.5782 59.6904 96.764 57.4158C97.8569 56.2784 98.558 55.3036 98.955 54.5466C99.3143 53.8615 99.3317 53.5375 99.3338 53.5164C99.2997 53.1229 98.7537 51.5685 96.2974 49.1158C94.0068 46.8287 90.5866 44.3 86.2043 41.946C84.8151 41.1999 83.341 40.4775 81.79 39.7906C82.4843 39.0793 83.1566 38.3585 83.7982 37.6288C84.1902 37.183 84.5601 36.7305 84.9108 36.2744Z" fill="black"/>
<path d="M48.6805 0L50.7563 8.40839L59.1646 10.4841L50.7563 12.5599L48.6805 20.9683L46.6047 12.5599L38.1964 10.4841L46.6047 8.40839L48.6805 0Z" fill="black"/>
</g>
<defs>
<clipPath id="clip0_15101_8969">
<rect width="266.352" height="83.6796" fill="white"/>
</clipPath>
</defs>
</svg>
