<svg width="395" height="50" viewBox="0 0 395 50" fill="none" xmlns="http://www.w3.org/2000/svg">
<path fill-rule="evenodd" clip-rule="evenodd" d="M16.4972 14.2857C24.225 7.08208 35.053 0.0142858 47.8013 0L49.5765 1.78571C49.5907 14.6893 42.5857 25.6 35.432 33.3784V48.2143L33.6604 50H23.0308L21.78 49.4784L18.2404 45.9106L18.2085 45.907L4.03565 31.6213L4.03204 31.5894L0.520838 28.0499L0 26.7857V16.0714L1.7716 14.2857H16.4972ZM12.9078 17.8571H3.54321V26.0499L5.02414 27.5356C7.41264 24.1187 10.0478 20.8839 12.9078 17.8571ZM22.2513 44.9179L23.7395 46.4286H31.8711V37.0036C28.8636 39.8784 25.6482 42.5239 22.2513 44.9179ZM35.331 18.5948C35.6067 19.9886 35.322 21.4358 34.5391 22.6179H34.5355C33.7529 23.7995 32.5364 24.6192 31.1539 24.8969C29.7714 25.1745 28.3363 24.8873 27.1639 24.0982C25.9916 23.3091 25.1784 22.0831 24.9029 20.6896C24.6274 19.2961 24.9124 17.8496 25.6953 16.6678C26.4781 15.4857 27.6947 14.6654 29.0774 14.3875C30.4602 14.1096 31.896 14.3966 33.0688 15.1857C34.2415 15.9748 35.0553 17.201 35.331 18.5948Z" fill="black"/>
<path d="M10.6296 46.4286V50H0V39.2857H3.54321V46.4286H10.6296Z" fill="black"/>
<path fill-rule="evenodd" clip-rule="evenodd" d="M96.4028 2.49305C93.1767 1.2262 89.4057 0.592773 85.0897 0.592773H67.8259V49.017H85.0897C89.4057 49.017 93.1767 48.3399 96.4028 46.9857C99.6288 45.6315 102.31 43.8186 104.446 41.547C106.582 39.2754 108.174 36.7417 109.22 33.9459C110.31 31.1501 110.855 28.3106 110.855 25.4274V23.9858C110.855 20.9716 110.31 18.0666 109.22 15.2708C108.174 12.4313 106.582 9.91941 104.446 7.73519C102.31 5.50728 99.6288 3.7599 96.4028 2.49305ZM92.283 10.2907C90.3648 9.59178 88.1632 9.2423 85.6782 9.2423H77.1117V40.3675H85.6782C88.1632 40.3675 90.3648 39.9962 92.283 39.2536C94.2448 38.4672 95.9014 37.3751 97.2529 35.9772C98.6043 34.5793 99.6288 32.9411 100.326 31.0627C101.067 29.1406 101.438 27.0219 101.438 24.7066C101.438 22.304 101.067 20.1634 100.326 18.285C99.6288 16.3629 98.6043 14.7247 97.2529 13.3705C95.9014 12.0163 94.2448 10.9897 92.283 10.2907Z" fill="black"/>
<path fill-rule="evenodd" clip-rule="evenodd" d="M134.341 49.9999C131.289 49.9999 128.608 49.4757 126.298 48.4273C124.031 47.3789 122.134 45.981 120.609 44.2336C119.126 42.4425 117.993 40.4549 117.208 38.2707C116.467 36.0864 116.096 33.8585 116.096 31.5869V30.3419C116.096 27.983 116.467 25.7114 117.208 23.5271C117.993 21.2992 119.126 19.3334 120.609 17.6297C122.134 15.8823 124.009 14.5063 126.232 13.5015C128.456 12.4531 131.028 11.9289 133.949 11.9289C137.785 11.9289 140.989 12.7807 143.562 14.4844C146.177 16.1445 148.139 18.3505 149.447 21.1026C150.755 23.8111 151.409 26.7379 151.409 29.8832V33.1596H124.715C124.871 34.5325 125.18 35.7993 125.644 36.9601C126.341 38.6638 127.409 40.018 128.848 41.0228C130.287 41.9838 132.118 42.4644 134.341 42.4644C136.564 42.4644 138.374 42.0275 139.769 41.1538C141.164 40.2365 142.058 39.1225 142.45 37.812H150.82C150.297 40.2583 149.294 42.3988 147.812 44.2336C146.33 46.0683 144.433 47.4881 142.123 48.4928C139.856 49.4976 137.262 49.9999 134.341 49.9999ZM125.644 24.8377C125.302 25.6714 125.045 26.5887 124.87 27.5898H142.726C142.565 26.457 142.299 25.4304 141.927 24.51C141.273 22.8937 140.27 21.6487 138.919 20.775C137.611 19.9013 135.954 19.4645 133.949 19.4645C131.943 19.4645 130.243 19.9232 128.848 20.8405C127.453 21.7579 126.385 23.0903 125.644 24.8377Z" fill="black"/>
<path d="M154.694 13.1739L165.811 48.7549H180.393L190.006 13.1739H181.243L174.01 41.2849H172.466L164.045 13.1739H154.694Z" fill="black"/>
<path d="M251.788 45.8062C254.055 48.5147 257.237 49.8689 261.335 49.8689H261.727C264.474 49.8689 266.763 49.2573 268.594 48.0341C270.425 46.811 271.798 44.9981 272.713 42.5954C272.966 41.9317 273.184 41.223 273.367 40.4692V48.7549H280.561V13.1084H271.471V34.1425C271.471 36.4577 270.795 38.2925 269.444 39.6467C268.136 41.0009 266.436 41.678 264.343 41.678C262.25 41.678 260.594 41.0446 259.373 39.7778C258.152 38.4672 257.542 36.7199 257.542 34.5356V13.1084H248.452V33.7493C248.452 39.0788 249.564 43.0978 251.788 45.8062Z" fill="black"/>
<path d="M302.119 22.3477C300.767 23.7019 300.092 25.5366 300.092 27.8519V48.7549H291.002V13.1739H298.195V21.942C298.406 21.0294 298.668 20.1817 298.98 19.3989C299.939 16.9526 301.356 15.1179 303.231 13.8947C305.149 12.6715 307.525 12.06 310.359 12.06H310.751C314.98 12.06 318.184 13.436 320.364 16.1881C322.543 18.8966 323.633 22.9592 323.633 28.3761V48.7549H314.544V27.5898C314.544 25.4056 313.912 23.6363 312.647 22.2821C311.427 20.9279 309.726 20.2508 307.547 20.2508C305.323 20.2508 303.514 20.9497 302.119 22.3477Z" fill="black"/>
<path d="M340.73 47.9686C342.866 48.7986 345.569 49.2136 348.838 49.2136H353.939V41.4159H348.381C346.637 41.4159 345.285 40.9572 344.326 40.0399C343.411 39.0788 342.953 37.7246 342.953 35.9772L342.985 19.8576H353.939V13.1739H342.998L343.018 3.14831H334.517L334.497 13.1739H328.828V19.8576H334.483L334.452 35.3875C334.452 38.8385 334.975 41.5907 336.021 43.6438C337.068 45.6533 338.637 47.0949 340.73 47.9686Z" fill="black"/>
<path d="M228.914 48.7549V28.9003H206.877V48.7549H197.591V0.920407H206.877V20.7095H228.914V0.920407H238.2V48.7549H228.914Z" fill="black"/>
<rect x="365.758" y="41.7261" width="28.7779" height="7.47664" fill="black"/>
</svg>
