<svg width="252" height="80" viewBox="0 0 252 80" fill="none" xmlns="http://www.w3.org/2000/svg">
<g clip-path="url(#clip0_15101_8965)">
<path d="M25.5637 63.351L27.5304 63.6147L27.7933 65.5868C27.1805 65.6689 26.5644 65.4601 26.1273 65.0217C25.6901 64.5833 25.4818 63.9655 25.5637 63.351Z" fill="black"/>
<path fill-rule="evenodd" clip-rule="evenodd" d="M33.6356 52.0049H33.6361C35.0591 52.0494 36.4163 52.6188 37.4468 53.6052C37.4549 53.6129 37.4631 53.6208 37.471 53.6287C39.6356 55.7721 39.6037 59.2024 37.7524 61.4034L37.7526 61.4037C36.9509 62.3608 35.8548 63.0544 34.8192 63.5616C33.7609 64.08 32.6227 64.4723 31.6053 64.7641C30.5815 65.0578 29.6378 65.2617 28.9519 65.3923C28.6076 65.4578 28.3247 65.5054 28.125 65.5372C28.0251 65.553 27.9458 65.5651 27.8897 65.5733C27.8616 65.5774 27.8392 65.5806 27.8231 65.5828C27.8151 65.5839 27.8086 65.5848 27.8036 65.5855C27.8012 65.5858 27.799 65.586 27.7973 65.5863C27.7964 65.5864 27.7956 65.5867 27.7949 65.5868H27.7941C27.7934 65.5843 27.7837 65.5147 27.5304 63.6147C25.5637 63.351 25.5637 63.3502 25.5637 63.3502L25.564 63.3494C25.5641 63.3488 25.5642 63.3478 25.5643 63.347C25.5645 63.3454 25.5647 63.3433 25.5651 63.341C25.5657 63.336 25.5666 63.3292 25.5677 63.3212C25.5699 63.305 25.5731 63.2825 25.5772 63.2544C25.5853 63.1981 25.5974 63.1185 25.6132 63.0184C25.6449 62.8181 25.6924 62.5344 25.7577 62.1891C25.888 61.5014 26.0913 60.5552 26.3841 59.5287C26.6752 58.5084 27.0664 57.3668 27.5833 56.3055C28.0891 55.2671 28.7808 54.1679 29.7352 53.3639C30.8239 52.4451 32.2127 51.9609 33.6356 52.0049ZM33.5127 55.9822C33.0668 55.9685 32.6313 56.1205 32.2899 56.409L32.2878 56.4111C31.9369 56.7066 31.5405 57.2482 31.1489 58.0522C30.7684 58.8334 30.4524 59.7364 30.1995 60.6229C30.1577 60.7694 30.1183 60.9145 30.0806 61.0571C30.2228 61.0192 30.3676 60.98 30.5138 60.9381C31.3979 60.6845 32.2986 60.3677 33.0776 59.9861C33.8794 59.5934 34.4195 59.1959 34.7142 58.844L34.7182 58.8393C35.3309 58.1122 35.2672 57.0519 34.6932 56.4712C34.3724 56.1704 33.9529 55.9959 33.5127 55.9822Z" fill="black"/>
<path fill-rule="evenodd" clip-rule="evenodd" d="M61.485 27.588C62.576 27.5947 63.4569 28.4837 63.4569 29.5778C63.4569 34.5054 62.0823 43.0827 53.3 49.6063C53.4402 50.2144 53.5935 50.9838 53.7019 51.8273C53.8305 52.8282 53.9038 53.9875 53.7977 55.1331C53.6931 56.2616 53.4011 57.5242 52.6799 58.6091L52.6783 58.6118C51.4493 60.4542 49.1519 61.5029 47.5911 62.0706C46.7445 62.3786 45.963 62.5968 45.3947 62.7381C45.1091 62.8092 44.8735 62.8618 44.7059 62.8973C44.6221 62.915 44.5548 62.9285 44.5066 62.9379C44.4826 62.9426 44.4631 62.9463 44.4487 62.949C44.4416 62.9504 44.4355 62.9516 44.4308 62.9524C44.4286 62.9529 44.4265 62.9532 44.4248 62.9535L44.4216 62.9543C44.4208 62.9519 44.4078 62.8832 44.0663 60.9967L44.4208 62.9543C43.842 63.0596 43.2464 62.9021 42.7948 62.5241C42.3433 62.1461 42.0823 61.5865 42.0823 60.9967V53.0931L38.0227 49.0222H30.1411C29.5529 49.0221 28.9949 48.7605 28.6179 48.3077C28.241 47.8549 28.0839 47.2575 28.1889 46.6771L30.1411 47.0326C28.2602 46.6903 28.1916 46.6772 28.1892 46.6763V46.6753C28.1893 46.6746 28.1896 46.6739 28.1897 46.6732C28.19 46.6715 28.1903 46.6693 28.1908 46.6671C28.1916 46.6624 28.1928 46.6563 28.1942 46.6491C28.1969 46.6347 28.2006 46.6151 28.2052 46.5911C28.2146 46.5428 28.2281 46.4755 28.2458 46.3915C28.2811 46.2235 28.3337 45.9871 28.4045 45.7008C28.5455 45.1309 28.763 44.347 29.0701 43.498C29.6363 41.9328 30.6822 39.6294 32.5194 38.3969L32.522 38.3951C33.6039 37.6718 34.863 37.379 35.9884 37.2741C37.1309 37.1676 38.287 37.2412 39.2853 37.3702C40.1344 37.4799 40.908 37.6352 41.5172 37.7769C43.6336 34.824 46.3842 32.3755 49.5733 30.6166L49.9165 30.4308C53.4774 28.5405 57.4519 27.5629 61.485 27.588ZM49.6978 51.864C48.5118 52.5076 47.2947 53.0922 46.0506 53.6155V58.3959C46.1126 58.3742 46.1752 58.3524 46.238 58.3296C47.7363 57.7846 48.9203 57.0878 49.3796 56.3992C49.5974 56.0701 49.7748 55.5357 49.8462 54.7649C49.9163 54.0092 49.8723 53.1632 49.7659 52.3359C49.7453 52.1756 49.7219 52.0179 49.6978 51.864ZM59.3931 31.66C56.7337 31.9144 54.1439 32.6895 51.7731 33.948L51.4857 34.1035C48.4309 35.7882 45.8568 38.229 44.0081 41.1931C44.0044 41.199 44.0006 41.2051 43.9968 41.211C42.9103 42.9124 41.9679 44.7014 41.1779 46.5586L44.5438 49.9338C46.4187 49.1435 48.226 48.1992 49.9468 47.1097C57.062 42.3151 58.9848 36.0867 59.3931 31.66ZM38.7781 41.3171C37.9529 41.2105 37.1092 41.1664 36.3556 41.2366C35.5868 41.3083 35.0537 41.4858 34.7255 41.7043L34.7258 41.7046C34.039 42.1653 33.3442 43.3528 32.8007 44.8552C32.778 44.918 32.756 44.9807 32.7344 45.0428H37.5084C38.0369 43.796 38.6276 42.5768 39.2781 41.3899C39.1153 41.364 38.9482 41.3391 38.7781 41.3171Z" fill="black"/>
<path fill-rule="evenodd" clip-rule="evenodd" d="M49.0306 0.289863C54.4492 -0.176161 55.843 0.135978 59.2488 2.61672L73.3333 12.5436C75.6576 14.2506 76.432 14.7157 76.432 16.5765V71.0228C76.432 74.4344 75.1925 76.4527 70.8584 76.761L19.6185 79.8644C16.3653 80.0198 14.8169 79.5545 13.1132 77.3815L2.74099 63.887C0.88243 61.403 0.109497 59.5443 0.109497 57.3699V8.9752C0.10951 6.18482 1.34936 3.85722 4.90714 3.54815L49.0306 0.289863ZM71.1685 21.2297C71.1685 19.215 70.3959 18.1284 68.6891 18.2834L18.3768 21.2297C16.5201 21.3862 15.9008 22.3176 15.9008 24.3336V70.5562C15.9008 73.0402 17.1386 73.9701 19.9249 73.8163L68.0703 71.0228C70.8579 70.869 71.1685 69.1597 71.1685 67.1422V21.2297ZM57.6994 6.65072C56.3057 5.56544 54.4482 4.32255 50.8888 4.63345L8.46879 7.73602C6.92194 7.88989 6.61298 8.66543 7.22911 9.28717L13.2704 14.0956C15.745 16.1116 16.6736 15.9578 21.3204 15.647L65.129 13.0092C66.0578 13.0092 65.285 12.0797 64.9756 11.9252L57.6994 6.65072Z" fill="black"/>
<path d="M91.1387 38.2657V11.4817H100.193C103.073 11.4817 105.548 12.0136 107.619 13.0773C109.69 14.1411 111.281 15.6734 112.393 17.6743C113.529 19.6752 114.098 22.0813 114.098 24.8927C114.098 27.7041 113.529 30.1102 112.393 32.1111C111.281 34.0867 109.678 35.6063 107.581 36.6701C105.51 37.7338 103.035 38.2657 100.156 38.2657H91.1387ZM97.0489 36.6321L93.8665 33.1749H99.8145C102.467 33.1749 104.449 32.453 105.763 31.0093C107.101 29.5657 107.771 27.5268 107.771 24.8927C107.771 22.2586 107.101 20.2197 105.763 18.7761C104.449 17.307 102.467 16.5725 99.8145 16.5725H93.8665L97.0489 13.1153V36.6321Z" fill="black"/>
<path d="M117.101 38.2657V18.4341H122.709V38.2657H117.101ZM119.905 16.4586C118.971 16.4586 118.188 16.142 117.556 15.5088C116.95 14.8756 116.647 14.1158 116.647 13.2293C116.647 12.3175 116.95 11.5577 117.556 10.9498C118.188 10.3166 118.971 10 119.905 10C120.865 10 121.648 10.3166 122.254 10.9498C122.885 11.5577 123.201 12.3175 123.201 13.2293C123.201 14.1158 122.885 14.8756 122.254 15.5088C121.648 16.142 120.865 16.4586 119.905 16.4586Z" fill="black"/>
<path d="M126.277 38.2657V18.4341H131.543V20.4857C131.947 19.7005 132.553 19.0926 133.362 18.6621C134.17 18.2062 135.142 17.9782 136.279 17.9782C136.531 17.9782 136.759 17.9909 136.961 18.0162C137.163 18.0162 137.34 18.0415 137.491 18.0922V23.449C137.188 23.3984 136.898 23.3604 136.62 23.335C136.367 23.2844 136.077 23.2591 135.748 23.2591C135.016 23.2591 134.347 23.4237 133.741 23.7529C133.16 24.0822 132.705 24.6141 132.377 25.3486C132.048 26.0578 131.884 26.9949 131.884 28.16V38.2657H126.277Z" fill="black"/>
<path d="M149.068 38.7216C146.997 38.7216 145.191 38.2911 143.65 37.4299C142.135 36.5434 140.96 35.315 140.127 33.7447C139.318 32.1491 138.914 30.2875 138.914 28.16C138.914 26.1591 139.331 24.3988 140.165 22.8791C141.023 21.3342 142.21 20.1311 143.726 19.2699C145.241 18.4088 146.959 17.9782 148.878 17.9782C150.773 17.9782 152.427 18.3708 153.841 19.156C155.256 19.9158 156.354 21.0176 157.137 22.4612C157.92 23.8796 158.312 25.5765 158.312 27.5521C158.312 27.9067 158.299 28.2993 158.274 28.7298C158.249 29.1351 158.211 29.477 158.16 29.7556H141.528V26.1464H154.599L152.932 26.7543C152.932 25.7412 152.768 24.8927 152.44 24.2088C152.111 23.4997 151.631 22.9805 151 22.6512C150.368 22.2966 149.598 22.1193 148.689 22.1193C147.83 22.1193 147.072 22.2966 146.416 22.6512C145.759 23.0058 145.254 23.5377 144.9 24.2468C144.547 24.956 144.37 25.8425 144.37 26.9062V29.2617C144.37 30.7814 144.761 31.9971 145.544 32.9089C146.353 33.8207 147.565 34.2766 149.181 34.2766C150.217 34.2766 151.101 34.0613 151.833 33.6308C152.591 33.2002 153.197 32.5417 153.652 31.6552L157.895 33.7447C157.39 34.8085 156.695 35.7203 155.811 36.4801C154.927 37.2146 153.917 37.7718 152.781 38.1518C151.644 38.5317 150.406 38.7216 149.068 38.7216Z" fill="black"/>
<path d="M170.376 38.7216C168.456 38.7216 166.739 38.3037 165.223 37.4679C163.708 36.6068 162.508 35.4037 161.624 33.8587C160.765 32.2884 160.336 30.4521 160.336 28.3499C160.336 26.2224 160.765 24.3861 161.624 22.8411C162.508 21.2962 163.708 20.1058 165.223 19.2699C166.739 18.4088 168.456 17.9782 170.376 17.9782C172.876 17.9782 174.884 18.5228 176.4 19.6119C177.915 20.6756 178.989 22.17 179.62 24.0949L174.43 25.7285C174.026 24.5634 173.483 23.7656 172.801 23.335C172.119 22.8791 171.323 22.6512 170.414 22.6512C169.606 22.6512 168.873 22.8665 168.216 23.297C167.585 23.7276 167.067 24.3608 166.663 25.1966C166.284 26.0324 166.095 27.0835 166.095 28.3499C166.095 29.591 166.284 30.6421 166.663 31.5032C167.067 32.339 167.585 32.9722 168.216 33.4028C168.873 33.808 169.606 34.0107 170.414 34.0107C171.323 34.0107 172.106 33.7954 172.763 33.3648C173.445 32.9089 174 32.1111 174.43 30.9713L179.62 32.567C178.989 34.4666 177.915 35.9736 176.4 37.088C174.884 38.1771 172.876 38.7216 170.376 38.7216Z" fill="black"/>
<path d="M190.218 38.6456C188.223 38.6456 186.707 38.1644 185.672 37.202C184.636 36.2395 184.118 34.8338 184.118 32.9849V14.1411L189.726 11.7476V31.7692C189.726 32.4783 189.89 32.9976 190.218 33.3268C190.572 33.6561 191.077 33.8207 191.733 33.8207C191.986 33.8207 192.239 33.7954 192.491 33.7447C192.769 33.6941 193.059 33.6181 193.363 33.5168V38.1518C192.807 38.329 192.277 38.4557 191.771 38.5317C191.266 38.6077 190.748 38.6456 190.218 38.6456ZM180.784 22.8032V18.4341H193.552V22.8032H180.784Z" fill="black"/>
<path d="M205.604 38.7216C203.609 38.7216 201.828 38.3037 200.262 37.4679C198.722 36.6068 197.509 35.4037 196.625 33.8587C195.741 32.3137 195.299 30.4775 195.299 28.3499C195.299 26.2224 195.741 24.3861 196.625 22.8411C197.509 21.2962 198.722 20.1058 200.262 19.2699C201.828 18.4088 203.609 17.9782 205.604 17.9782C207.625 17.9782 209.405 18.4088 210.946 19.2699C212.512 20.1058 213.737 21.2962 214.621 22.8411C215.505 24.3861 215.947 26.2224 215.947 28.3499C215.947 30.4775 215.505 32.3137 214.621 33.8587C213.737 35.4037 212.512 36.6068 210.946 37.4679C209.405 38.3037 207.625 38.7216 205.604 38.7216ZM205.604 34.0107C206.513 34.0107 207.309 33.7954 207.991 33.3648C208.673 32.9342 209.203 32.301 209.582 31.4652C209.986 30.6041 210.188 29.5657 210.188 28.3499C210.188 27.1089 209.986 26.0704 209.582 25.2346C209.203 24.3988 208.673 23.7656 207.991 23.335C207.309 22.8791 206.513 22.6512 205.604 22.6512C204.72 22.6512 203.925 22.8791 203.217 23.335C202.535 23.7656 202.005 24.3988 201.626 25.2346C201.247 26.0704 201.058 27.1089 201.058 28.3499C201.058 29.5657 201.247 30.6041 201.626 31.4652C202.005 32.301 202.535 32.9342 203.217 33.3648C203.925 33.7954 204.72 34.0107 205.604 34.0107Z" fill="black"/>
<path d="M218.809 38.2657V18.4341H224.075V20.4857C224.479 19.7005 225.085 19.0926 225.894 18.6621C226.702 18.2062 227.674 17.9782 228.811 17.9782C229.063 17.9782 229.291 17.9909 229.493 18.0162C229.695 18.0162 229.872 18.0415 230.023 18.0922V23.449C229.72 23.3984 229.43 23.3604 229.152 23.335C228.899 23.2844 228.609 23.2591 228.28 23.2591C227.548 23.2591 226.879 23.4237 226.272 23.7529C225.691 24.0822 225.237 24.6141 224.909 25.3486C224.58 26.0578 224.416 26.9949 224.416 28.16V38.2657H218.809Z" fill="black"/>
<path d="M237.455 45.864L240.448 36.4801L240.978 35.4923L246.169 18.4341H251.89L243.176 45.864H237.455ZM237.834 38.0378L231.204 18.4341H236.925L241.774 33.8207H243.365L242.797 38.0378H237.834Z" fill="black"/>
<path d="M107.392 72.5901V45.806H113.264V72.5901H107.392ZM91.1387 72.5901V45.806H97.0489V72.5901H91.1387ZM94.8894 60.8127V55.4938H109.551V60.8127H94.8894Z" fill="black"/>
<path d="M126.152 73.046C124.409 73.046 122.856 72.742 121.492 72.1342C120.128 71.501 119.054 70.5638 118.272 69.3228C117.489 68.0817 117.097 66.5241 117.097 64.6498V52.7585H122.704V64.3459C122.704 65.6629 123.007 66.6634 123.613 67.3472C124.245 68.0057 125.091 68.335 126.152 68.335C127.213 68.335 128.046 68.0057 128.652 67.3472C129.284 66.6634 129.599 65.6629 129.599 64.3459V52.7585H135.207V64.6498C135.207 66.5241 134.815 68.0817 134.032 69.3228C133.274 70.5638 132.201 71.501 130.812 72.1342C129.448 72.742 127.895 73.046 126.152 73.046Z" fill="black"/>
<path d="M151.214 72.5901V61.1546C151.214 59.8122 150.911 58.8118 150.305 58.1533C149.724 57.4947 148.916 57.1655 147.88 57.1655C146.744 57.1655 145.834 57.5454 145.152 58.3052C144.496 59.0397 144.167 60.0655 144.167 61.3825V72.5901H138.56V52.7585H143.826V54.886C144.407 54.0502 145.165 53.417 146.1 52.9864C147.034 52.5305 148.145 52.3026 149.434 52.3026C150.873 52.3026 152.149 52.5812 153.26 53.1384C154.371 53.6956 155.243 54.5694 155.874 55.7598C156.506 56.9502 156.821 58.4825 156.821 60.3568V72.5901H151.214Z" fill="black"/>
<path d="M168.352 72.97C166.357 72.97 164.841 72.4887 163.806 71.5263C162.77 70.5638 162.253 69.1581 162.253 67.3092V48.4654L167.86 46.0719V66.0935C167.86 66.8027 168.024 67.3219 168.352 67.6511C168.706 67.9804 169.211 68.145 169.868 68.145C170.12 68.145 170.373 68.1197 170.625 68.0691C170.903 68.0184 171.194 67.9424 171.497 67.8411V72.4761C170.941 72.6534 170.411 72.78 169.906 72.856C169.4 72.932 168.883 72.97 168.352 72.97ZM158.919 57.1275V52.7585H171.686V57.1275H158.919Z" fill="black"/>
</g>
<defs>
<clipPath id="clip0_15101_8965">
<rect width="252" height="80" fill="white"/>
</clipPath>
</defs>
</svg>
