<svg width="212" height="44" viewBox="0 0 212 44" fill="none" xmlns="http://www.w3.org/2000/svg">
<g clip-path="url(#clip0_15101_8937)">
<path d="M7.95013 0H0V44H7.95013V0Z" fill="black"/>
<path d="M25.9751 0H18.025V25.975H25.9751V0Z" fill="black"/>
<path d="M43.9991 0H36.0489V44H43.9991V0Z" fill="black"/>
<path d="M63.8411 18.0249H55.8912V25.9749V44.0003H63.8411V25.9749H91.9407V44.0003H99.8907V25.9749V18.0249H91.9407H63.8411Z" fill="black"/>
<path d="M99.891 0H55.8912V7.95007H99.891V0Z" fill="black"/>
<path d="M155.781 0H111.781V7.95007H155.781V0Z" fill="black"/>
<path d="M119.732 18.0249H111.781V43.9999H119.732V18.0249Z" fill="black"/>
<path d="M167.673 18.0249V25.9749H203.723V36.0503H167.673V44.0003H203.723H211.673V36.0503V25.9749V18.0249H203.723H167.673Z" fill="black"/>
<path d="M211.673 0H167.673V7.95007H211.673V0Z" fill="black"/>
</g>
<defs>
<clipPath id="clip0_15101_8937">
<rect width="211.673" height="44.0002" fill="white"/>
</clipPath>
</defs>
</svg>
