<svg width="200" height="55" viewBox="0 0 200 55" fill="none" xmlns="http://www.w3.org/2000/svg">
<g clip-path="url(#clip0_15101_8951)">
<path d="M192.635 13.4531H199.698V20.4482H192.635L192.602 47.0811H200V54.4805H192.601V47.084H185.606L185.64 20.4482H180.292V13.4531H185.64L185.606 2.89258H192.602L192.635 13.4531ZM104.502 7.39941H111.492V18.3291C112.613 16.6028 114.048 15.2012 115.797 14.125C117.569 13.049 119.631 12.5107 121.985 12.5107C125.259 12.5108 128.23 13.3067 130.897 14.8984C133.588 16.4904 135.73 18.6317 137.321 21.3223C138.913 23.9904 139.709 26.9619 139.709 30.2354C139.709 32.6789 139.249 34.9767 138.33 37.1289C137.411 39.2588 136.133 41.1426 134.496 42.7793C132.882 44.3936 130.998 45.6608 128.846 46.5801C126.716 47.4992 124.429 47.9589 121.985 47.959C119.631 47.959 117.569 47.4208 115.797 46.3447C114.048 45.2461 112.613 43.8445 111.492 42.1406V47.084H104.496V7.39941H97.1025V0H104.502V7.39941ZM45.793 12.5107C48.3712 12.5108 50.7364 13.0489 52.8887 14.125C55.041 15.1788 56.8798 16.6471 58.4043 18.5303C59.929 20.3912 61.0501 22.5444 61.7676 24.9883C62.485 27.4097 62.6978 29.9884 62.4062 32.7236H36.4766C36.7681 34.2704 37.3288 35.6714 38.1582 36.9268C39.0102 38.16 40.0863 39.136 41.3867 39.8535C42.7096 40.5709 44.1787 40.9404 45.793 40.9629C47.4968 40.9628 49.0437 40.5365 50.4336 39.6846C51.8461 38.8326 53.0007 37.6555 53.8975 36.1533L60.9941 37.8018C59.6489 40.7837 57.6192 43.228 54.9062 45.1338C52.1936 47.0168 49.1557 47.9579 45.793 47.958C42.6989 47.958 39.8734 47.1622 37.3174 45.5703C34.784 43.9785 32.7551 41.8486 31.2305 39.1807C29.7283 36.4902 28.9766 33.5194 28.9766 30.2686C28.9766 27.8024 29.4138 25.5039 30.2881 23.374C31.1625 21.2217 32.3622 19.3379 33.8867 17.7236C35.4337 16.087 37.2274 14.8089 39.2676 13.8896C41.3079 12.9704 43.4836 12.5107 45.793 12.5107ZM82.707 12.5107C85.8011 12.5108 88.6147 13.3066 91.1484 14.8984C93.7044 16.4903 95.7334 18.6318 97.2354 21.3223C98.7602 24.0128 99.5225 26.9951 99.5225 30.2686C99.5224 32.7123 99.0853 34.999 98.2109 37.1289C97.3365 39.2589 96.1261 41.1425 94.5791 42.7793C93.0543 44.3936 91.2715 45.6598 89.2314 46.5791C87.2136 47.4983 85.039 47.958 82.707 47.958C79.6129 47.958 76.7874 47.1622 74.2314 45.5703C71.6979 43.9784 69.6693 41.8486 68.1445 39.1807C66.6423 36.4902 65.8917 33.5194 65.8916 30.2686C65.8916 27.8023 66.3288 25.504 67.2031 23.374C68.0776 21.2216 69.2769 19.3379 70.8018 17.7236C72.3488 16.087 74.1426 14.8089 76.1826 13.8896C78.2227 12.9705 80.3979 12.5107 82.707 12.5107ZM159.89 12.5107C162.984 12.5107 165.798 13.3066 168.332 14.8984C170.888 16.4903 172.917 18.6318 174.419 21.3223C175.944 24.0128 176.706 26.9951 176.706 30.2686C176.706 32.7122 176.269 34.999 175.395 37.1289C174.52 39.2589 173.309 41.1425 171.762 42.7793C170.237 44.3934 168.455 45.6599 166.415 46.5791C164.397 47.4983 162.222 47.958 159.89 47.958C156.796 47.9579 153.971 47.1621 151.415 45.5703C148.881 43.9785 146.853 41.8486 145.328 39.1807C143.826 36.4902 143.074 33.5194 143.074 30.2686C143.074 27.8024 143.511 25.5039 144.386 23.374C145.26 21.2217 146.46 19.3379 147.984 17.7236C149.531 16.087 151.325 14.8089 153.365 13.8896C155.405 12.9705 157.581 12.5108 159.89 12.5107ZM13.1836 12.3096C15.8741 12.3096 18.3409 12.8809 20.583 14.0244C22.8248 15.1678 24.5402 16.7372 25.7285 18.7324L20.1787 22.0283C19.8424 21.3559 19.3375 20.7509 18.665 20.2129C17.9925 19.6749 17.2307 19.2484 16.3789 18.9346C15.5269 18.5983 14.641 18.4081 13.7217 18.3633C12.5782 18.3185 11.5129 18.4528 10.5264 18.7666C9.56251 19.0581 8.78895 19.5287 8.20605 20.1787C7.62309 20.8289 7.33203 21.659 7.33203 22.668C7.33208 23.6544 7.67907 24.3945 8.37402 24.8877C9.06898 25.3585 9.94342 25.7397 10.9971 26.0312C12.0731 26.3227 13.1721 26.6472 14.293 27.0059C16.2885 27.6337 18.1613 28.4079 19.9102 29.3271C21.6588 30.2239 23.0713 31.3336 24.1475 32.6562C25.2236 33.9791 25.7391 35.5934 25.6943 37.499C25.6943 39.6066 25.0553 41.4569 23.7773 43.0488C22.5218 44.6406 20.885 45.8511 18.8672 46.6807C16.8493 47.5102 14.7079 47.8581 12.4434 47.7236C10.6723 47.6115 8.94604 47.2527 7.26465 46.6475C5.58318 46.0421 4.10314 45.2236 2.8252 44.1924C1.56961 43.1386 0.627789 41.9046 0 40.4922L5.95312 37.9365C6.24456 38.5417 6.74857 39.136 7.46582 39.7188C8.20566 40.3017 9.0692 40.7839 10.0557 41.165C11.0422 41.5238 12.0742 41.7031 13.1504 41.7031C14.204 41.7031 15.1795 41.557 16.0762 41.2656C16.9953 40.9517 17.7462 40.4812 18.3291 39.8535C18.912 39.2258 19.204 38.4748 19.2041 37.6006C19.2041 36.6141 18.867 35.8516 18.1943 35.3135C17.5441 34.753 16.7258 34.3266 15.7393 34.0352C14.7529 33.7437 13.7666 33.4633 12.7803 33.1943C10.5831 32.7011 8.565 32.0287 6.72656 31.1768C4.91046 30.3023 3.46391 29.1919 2.3877 27.8467C1.31164 26.4791 0.773438 24.8089 0.773438 22.8359C0.773438 20.6835 1.35657 18.8224 2.52246 17.2529C3.68834 15.6612 5.21337 14.4389 7.09668 13.5869C9.00231 12.7351 11.0314 12.3096 13.1836 12.3096ZM121.918 19.2705C119.967 19.2705 118.252 19.7646 116.772 20.751C115.293 21.7375 114.138 23.0598 113.308 24.7188C112.478 26.3779 112.063 28.2175 112.063 30.2354C112.064 32.2529 112.478 34.0911 113.308 35.75C114.138 37.4092 115.293 38.7323 116.772 39.7188C118.252 40.6828 119.967 41.165 121.918 41.165C123.868 41.165 125.651 40.6718 127.265 39.6855C128.879 38.699 130.157 37.3758 131.099 35.7168C132.063 34.0577 132.545 32.2306 132.545 30.2354C132.545 28.195 132.063 26.3447 131.099 24.6855C130.135 23.0265 128.846 21.7151 127.231 20.751C125.617 19.7646 123.846 19.2706 121.918 19.2705ZM82.707 19.5059C80.8689 19.5059 79.1981 19.9991 77.6963 20.9854C76.2165 21.9719 75.0385 23.2842 74.1641 24.9209C73.312 26.5576 72.8867 28.3405 72.8867 30.2686C72.8868 32.2637 73.335 34.0685 74.2314 35.6826C75.1281 37.297 76.3171 38.5867 77.7969 39.5508C79.2988 40.4924 80.9361 40.9629 82.707 40.9629C84.5681 40.9629 86.2381 40.4697 87.7178 39.4834C89.1975 38.4969 90.3636 37.1963 91.2158 35.582C92.0902 33.9454 92.5273 32.1742 92.5273 30.2686C92.5273 28.3179 92.0783 26.5235 91.1816 24.8867C90.3072 23.2502 89.13 21.9494 87.6504 20.9854C86.1708 19.9991 84.5229 19.5059 82.707 19.5059ZM159.89 19.5059C158.052 19.5059 156.381 19.999 154.879 20.9854C153.399 21.9719 152.222 23.2842 151.348 24.9209C150.495 26.5576 150.069 28.3404 150.069 30.2686C150.069 32.2638 150.519 34.0684 151.415 35.6826C152.312 37.2969 153.5 38.5867 154.979 39.5508C156.481 40.4924 158.119 40.9628 159.89 40.9629C161.751 40.9629 163.422 40.4699 164.901 39.4834C166.381 38.4969 167.546 37.1962 168.398 35.582C169.273 33.9454 169.711 32.1742 169.711 30.2686C169.711 28.3179 169.262 26.5235 168.365 24.8867C167.491 23.2501 166.314 21.9494 164.834 20.9854C163.354 19.999 161.706 19.5059 159.89 19.5059ZM45.793 18.6992C44.2012 18.6992 42.7212 19.0805 41.3535 19.8428C40.0084 20.6051 38.8871 21.6471 37.9902 22.9697C37.1158 24.2702 36.5327 25.7392 36.2412 27.376H55.3438C55.1196 25.7617 54.5481 24.3043 53.6289 23.0039C52.7321 21.6811 51.5992 20.6383 50.2314 19.876C48.8864 19.0914 47.407 18.6993 45.793 18.6992Z" fill="black"/>
</g>
<defs>
<clipPath id="clip0_15101_8951">
<rect width="200" height="54.4805" fill="white"/>
</clipPath>
</defs>
</svg>
