<svg width="318" height="71" viewBox="0 0 318 71" fill="none" xmlns="http://www.w3.org/2000/svg">
<g clip-path="url(#clip0_15101_8961)">
<ellipse cx="3.59459" cy="5.67449" rx="3.59459" ry="5.67449" transform="matrix(-0.665502 -0.746396 -0.746396 0.665502 126.254 25.3672)" fill="black"/>
<path d="M99.1737 57.009C97.3448 57.009 95.916 56.5518 94.8872 55.6373C93.8965 54.6848 93.4012 53.275 93.4012 51.408V27.6321H87V22.7169H93.4584V12.4292H99.7453V22.7169H108.718V27.6321H99.8024V51.9795H109.633V57.009H99.1737Z" fill="black"/>
<path d="M115.993 57.009V34.1476H122.394V57.009H115.993Z" fill="black"/>
<path d="M133.478 57.009V29.3467H130.163V22.7169H137.022V27.975H139.422C140.604 26.0699 142.223 24.622 144.28 23.6313C146.338 22.6026 148.757 22.0882 151.539 22.0882C155.959 22.0882 159.445 23.3646 161.998 25.9175C164.551 28.4322 165.827 31.8043 165.827 36.0337V57.009H159.426V37.1196C159.426 34.0333 158.588 31.69 156.911 30.0897C155.273 28.4894 152.853 27.6892 149.653 27.6892C146.49 27.6892 144.071 28.4894 142.394 30.0897C140.718 31.69 139.88 34.0333 139.88 37.1196V57.009H133.478Z" fill="black"/>
<path d="M173.033 70.7259V65.6392H181.32L184.864 57.1233L169.49 22.7169H176.119L187.893 49.5219H188.179L199.381 22.7169H205.668L187.607 65.0677C186.845 66.8204 186.083 68.1921 185.321 69.1828C184.597 70.2115 183.302 70.7259 181.435 70.7259H173.033Z" fill="black"/>
<path d="M219.658 57.6377C215.772 57.6377 212.704 56.6852 210.456 54.78C208.246 52.8368 207.141 50.303 207.141 47.1786C207.141 43.9018 208.246 41.368 210.456 39.5772C212.666 37.7483 215.848 36.8338 220.001 36.8338H231.717V35.2907C231.717 29.9944 228.803 27.3463 222.973 27.3463C218.21 27.3463 215.333 29.1371 214.343 32.7187H207.884C208.456 29.3276 210.075 26.6986 212.742 24.8316C215.448 22.9645 218.896 22.031 223.087 22.031C227.85 22.031 231.489 23.155 234.004 25.4031C236.556 27.6511 237.833 30.8898 237.833 35.1192V50.3792H240.919V57.009H234.061V51.7509H231.66C230.479 53.5798 228.86 55.0277 226.802 56.0946C224.745 57.1233 222.363 57.6377 219.658 57.6377ZM220.515 52.4939C222.573 52.4939 224.459 52.0748 226.173 51.2365C227.888 50.3983 229.241 49.2552 230.231 47.8073C231.222 46.3594 231.717 44.7782 231.717 43.0636V41.5204H220.401C215.6 41.5204 213.2 43.3112 213.2 46.8928C213.2 48.6075 213.847 49.9791 215.143 51.0079C216.438 51.9986 218.229 52.4939 220.515 52.4939Z" fill="black"/>
<path d="M262.62 57.6949C259.19 57.6949 256.257 56.9709 253.818 55.523C251.418 54.0751 249.57 52.0176 248.274 49.3504C247.017 46.6833 246.388 43.5208 246.388 39.8629C246.388 36.2051 247.017 33.0426 248.274 30.3754C249.531 27.7083 251.322 25.6507 253.647 24.2029C256.009 22.755 258.809 22.031 262.048 22.031C264.791 22.031 267.154 22.5645 269.135 23.6313C271.155 24.6982 272.679 26.2413 273.707 28.2608H273.936V9H280.337V50.3792H283.652V57.009H276.794V51.7509H274.393C273.25 53.6941 271.688 55.1801 269.707 56.2089C267.725 57.1995 265.363 57.6949 262.62 57.6949ZM263.591 52.2081C266.716 52.2081 269.211 51.3127 271.078 49.5219C272.983 47.7311 273.936 45.3497 273.936 42.3777V37.3482C273.936 34.3762 272.983 31.9948 271.078 30.204C269.211 28.4132 266.716 27.5178 263.591 27.5178C260.162 27.5178 257.495 28.6037 255.59 30.7755C253.723 32.9474 252.789 35.9765 252.789 39.8629C252.789 43.7494 253.723 46.7785 255.59 48.9504C257.495 51.1222 260.162 52.2081 263.591 52.2081Z" fill="black"/>
<path d="M288.719 57.009V52.6654L309.409 27.8607H289.748V22.7169H317.067V27.0605L296.378 51.8652H317.41V57.009H288.719Z" fill="black"/>
<path d="M51.5 0C61.9934 0 70.5 8.50659 70.5 19V51.5C70.5 61.9934 61.9934 70.5 51.5 70.5H19C8.50659 70.5 0 61.9934 0 51.5V19C0 8.50659 8.50659 0 19 0H51.5ZM38.9844 37.3398C30.334 32.8414 21.0998 33.4672 18.3594 38.7363C15.6192 44.0056 20.4101 51.9233 29.0605 56.4219C37.711 60.9204 46.9453 60.2966 49.6855 55.0273C52.4257 49.7581 47.6347 41.8384 38.9844 37.3398ZM35.0957 23.1113C25.1887 21.0566 16.7765 21.3654 16.3047 23.8008C15.834 26.2367 23.4844 29.8785 33.3926 31.9336C43.2997 33.9884 51.7136 33.6794 52.1855 31.2441C52.6562 28.8082 45.0039 25.1664 35.0957 23.1113ZM34 13C24.335 13 16.5 14.1193 16.5 15.5C16.5 16.8807 24.335 18 34 18C43.665 18 51.5 16.8807 51.5 15.5C51.5 14.1193 43.665 13 34 13Z" fill="black"/>
</g>
<defs>
<clipPath id="clip0_15101_8961">
<rect width="317.41" height="70.7259" fill="white"/>
</clipPath>
</defs>
</svg>
