<svg width="125" height="125" viewBox="0 0 125 125" fill="none" xmlns="http://www.w3.org/2000/svg">
<g clip-path="url(#clip0_13974_876)">
<rect width="125" height="125" rx="12" fill="#081D21"/>
<path fill-rule="evenodd" clip-rule="evenodd" d="M-39.7714 49.7494C-16.4128 12.4545 -14.89 25.7754 -31.8762 54.9058C-31.8795 54.9115 -31.8824 54.9173 -31.8857 54.923C-38.2327 73.0469 6.51375 125.852 14.6375 101.918C15.2611 100.08 15.3502 98.6644 15.8936 96.7592C16.5793 94.3553 17.5015 91.6657 18.7194 89.1652C19.9112 86.7185 21.541 84.1288 23.7898 82.2345C26.3549 80.0696 29.6268 78.9285 32.9793 79.0321C36.332 79.1368 39.5316 80.4784 41.9595 82.8024C41.9785 82.8206 41.9981 82.8393 42.0169 82.8578C47.1168 87.9081 47.0414 95.9907 42.6793 101.177C40.7904 103.432 38.2086 105.066 35.7688 106.261C33.1977 107.521 30.8916 107.776 27.972 109.156C-5.9082 125.175 81.5205 157.945 103.244 141.5C106.42 139.096 100.632 152.628 98.7859 156.157L98.5976 156.5C90.3487 170.816 59.7897 162.585 16.6345 137.438L15.6087 136.835C-28.1158 110.825 -50.2841 67.7667 -40.018 50.1586L-39.7714 49.7494ZM32.6897 88.4033C31.6392 88.3711 30.6128 88.7294 29.8084 89.4089L29.8036 89.4137C28.9769 90.1102 28.043 91.3863 27.1203 93.2805C26.2238 95.1211 25.4792 97.2487 24.8834 99.3374C24.785 99.6824 24.6922 100.024 24.6033 100.36C24.9384 100.271 25.2799 100.179 25.6242 100.08C27.7073 99.4827 29.8294 98.7366 31.6649 97.8375C33.5539 96.9123 34.8267 95.9756 35.5212 95.1465L35.5307 95.1351C36.9744 93.422 36.8239 90.9233 35.4715 89.5552C34.7156 88.8463 33.7267 88.4357 32.6897 88.4033Z" fill="#FF791B"/>
<path fill-rule="evenodd" clip-rule="evenodd" d="M98.5976 21.5011C101.168 21.5171 103.244 23.6114 103.244 26.1891C103.244 37.7996 100.005 58.0097 79.3123 73.3805C79.6428 74.8134 80.0042 76.6259 80.2596 78.6134C80.5627 80.9717 80.7354 83.7032 80.4852 86.4025C80.2388 89.0614 79.551 92.0368 77.8516 94.593L77.8478 94.5988C74.9521 98.94 69.5387 101.411 65.8611 102.749C63.8665 103.475 62.0254 103.989 60.6866 104.322C60.0138 104.489 59.4583 104.613 59.0634 104.696C58.866 104.738 58.7075 104.77 58.594 104.792C58.5373 104.803 58.4911 104.812 58.4573 104.819C58.4404 104.822 58.4262 104.824 58.4152 104.826L58.4009 104.829L58.3932 104.831C57.0296 105.079 55.6238 104.708 54.5599 103.817C53.4962 102.926 52.8813 101.607 52.8812 100.218V81.596L43.316 72.0039H24.7457C23.3598 72.0038 22.0453 71.3874 21.1571 70.3205C20.2689 69.2536 19.8981 67.846 20.1457 66.4786L20.1505 66.4547C20.1525 66.4437 20.155 66.4293 20.1581 66.4126C20.1645 66.3787 20.1738 66.3326 20.1849 66.2759C20.207 66.1622 20.2389 66.0033 20.2805 65.8056C20.3637 65.4096 20.4874 64.853 20.6542 64.1785C20.9864 62.8358 21.4984 60.9882 22.222 58.9877C23.5561 55.2999 26.0208 49.8724 30.3495 46.9686L30.3562 46.9647C32.9052 45.2608 35.8714 44.5706 38.5229 44.3235C41.2148 44.0726 43.939 44.2461 46.2909 44.55C48.2917 44.8086 50.1152 45.1739 51.5505 45.5079C56.5371 38.5503 63.0179 32.7814 70.5319 28.6373L71.3406 28.1994C79.7306 23.7456 89.0951 21.4421 98.5976 21.5011ZM70.8254 78.6994C68.031 80.2159 65.1626 81.5935 62.2314 82.8263V94.0902C62.3773 94.0392 62.5252 93.9882 62.673 93.9344C66.2031 92.6503 68.9926 91.0083 70.0749 89.386C70.5882 88.6107 71.0069 87.3515 71.1752 85.5354C71.3402 83.755 71.2365 81.7614 70.986 79.8121C70.9374 79.4344 70.8823 79.0621 70.8254 78.6994ZM93.6687 31.095C87.4029 31.6945 81.3009 33.5212 75.715 36.4866L75.0382 36.8527C67.8406 40.8223 61.7749 46.5731 57.4191 53.557C57.4104 53.571 57.4012 53.5852 57.3924 53.599C54.8324 57.6079 52.6117 61.8235 50.7504 66.1994L58.681 74.152C63.0986 72.2898 67.357 70.0645 71.4114 67.4976C88.1763 56.2005 92.7068 41.5252 93.6687 31.095ZM45.096 53.8495C43.1519 53.5983 41.1637 53.4947 39.388 53.6602C37.5771 53.8291 36.321 54.2469 35.5479 54.7615C33.9299 55.8471 32.2934 58.6458 31.0129 62.1854C30.9593 62.3335 30.907 62.4817 30.8561 62.628H42.1048C43.3502 59.6903 44.742 56.8171 46.2747 54.0206C45.8909 53.9594 45.4969 53.9013 45.096 53.8495Z" fill="#FF791B"/>
</g>
<defs>
<clipPath id="clip0_13974_876">
<rect width="125" height="125" rx="12" fill="white"/>
</clipPath>
</defs>
</svg>
